<svg width="65" height="65" viewBox="0 0 65 65" fill="none" xmlns="http://www.w3.org/2000/svg">
<ellipse cx="32.2549" cy="32.0144" rx="32.2549" ry="32.0144" fill="#EAF7FC" style="fill:#EAF7FC;fill:color(display-p3 0.9176 0.9686 0.9882);fill-opacity:1;"/>
<g clip-path="url(#clip0_1976_1488)">
<path d="M24.9761 30.9971V37.4105C24.9761 37.6094 25.0563 37.8002 25.1992 37.9408C25.3421 38.0815 25.5358 38.1605 25.7379 38.1605H39.4504C39.6525 38.1605 39.8463 38.0815 39.9891 37.9408C40.132 37.8002 40.2123 37.6094 40.2123 37.4105V30.9971" stroke="#003451" style="stroke:#003451;stroke:color(display-p3 0.0000 0.2039 0.3176);stroke-opacity:1;" stroke-width="2" stroke-linecap="round" stroke-linejoin="round"/>
<path d="M25.5474 21.6606H39.6408C39.8063 21.6607 39.9673 21.7138 40.0994 21.8119C40.2315 21.91 40.3276 22.0478 40.3731 22.2044L41.7358 26.9106H23.4524L24.8179 22.2044C24.8633 22.0482 24.959 21.9108 25.0905 21.8127C25.222 21.7146 25.3824 21.6613 25.5474 21.6606Z" stroke="#003451" style="stroke:#003451;stroke:color(display-p3 0.0000 0.2039 0.3176);stroke-opacity:1;" stroke-width="2" stroke-linecap="round" stroke-linejoin="round"/>
<path d="M29.5469 26.9106V28.4106C29.5469 29.2063 29.2258 29.9694 28.6544 30.532C28.0829 31.0946 27.3078 31.4106 26.4996 31.4106C25.6915 31.4106 24.9164 31.0946 24.3449 30.532C23.7734 29.9694 23.4524 29.2063 23.4524 28.4106V26.9106" stroke="#003451" style="stroke:#003451;stroke:color(display-p3 0.0000 0.2039 0.3176);stroke-opacity:1;" stroke-width="2" stroke-linecap="round" stroke-linejoin="round"/>
<path d="M35.6413 26.9106V28.4106C35.6413 29.2063 35.3203 29.9694 34.7488 30.532C34.1774 31.0946 33.4023 31.4106 32.5941 31.4106C31.7859 31.4106 31.0109 31.0946 30.4394 30.532C29.8679 29.9694 29.5469 29.2063 29.5469 28.4106V26.9106" stroke="#003451" style="stroke:#003451;stroke:color(display-p3 0.0000 0.2039 0.3176);stroke-opacity:1;" stroke-width="2" stroke-linecap="round" stroke-linejoin="round"/>
<path d="M41.7358 26.9106V28.4106C41.7358 29.2063 41.4148 29.9694 40.8433 30.532C40.2718 31.0946 39.4968 31.4106 38.6886 31.4106C37.8804 31.4106 37.1053 31.0946 36.5339 30.532C35.9624 29.9694 35.6414 29.2063 35.6414 28.4106V26.9106" stroke="#003451" style="stroke:#003451;stroke:color(display-p3 0.0000 0.2039 0.3176);stroke-opacity:1;" stroke-width="2" stroke-linecap="round" stroke-linejoin="round"/>
</g>
<defs>
<clipPath id="clip0_1976_1488">
<rect width="24.3779" height="24" fill="white" style="fill:white;fill-opacity:1;" transform="translate(20.4053 17.9106)"/>
</clipPath>
</defs>
</svg>
