<svg width="64" height="65" viewBox="0 0 64 65" fill="none" xmlns="http://www.w3.org/2000/svg">
<rect width="64" height="65" fill="#4C4C4C"/>
<rect width="1440" height="1165" transform="translate(-575 -482)" fill="white"/>
<g filter="url(#filter0_d_768_1029)">
<rect x="-29" y="-27" width="254" height="119" rx="10.5459" fill="white"/>
</g>
<ellipse cx="31.7546" cy="32.8855" rx="31.7549" ry="32.0144" fill="#FCEAFA"/>
<path d="M26 33.625C27.1299 33.6272 28.2583 33.5423 29.375 33.3711V37.1092C28.7709 37.209 28.1624 37.2798 27.5515 37.3215L27.5514 37.3215L27.5152 37.324L27.5151 37.3241C27.0273 37.358 26.5223 37.375 26 37.375C25.3201 37.375 24.6675 37.3439 24.0447 37.2892L24.0447 37.2887H24.0337H24.0057C23.5282 37.245 23.068 37.1864 22.625 37.1131V33.3711C23.7417 33.5423 24.8701 33.6272 26 33.625ZM26 33.625C25.9999 33.625 25.9998 33.625 25.9998 33.625L26 33.5L26.0002 33.625C26.0002 33.625 26.0001 33.625 26 33.625ZM33.9999 39.625C32.8699 39.6262 31.7416 39.5402 30.625 39.3676V43.1086C32.861 43.4638 35.139 43.4638 37.375 43.1086V39.3711C36.2582 39.5423 35.1299 39.6272 33.9999 39.625ZM33.9999 39.625C33.9999 39.625 33.9998 39.625 33.9998 39.625L34 39.5L34.0001 39.625C34.0001 39.625 34 39.625 33.9999 39.625ZM34 38.375H33.9998C32.897 38.3767 31.796 38.2897 30.7073 38.115C32.4276 37.7165 33.8801 37.1018 34.9155 36.3342C35.9862 35.5404 36.625 34.5712 36.625 33.5V30.7875C38.5685 31.0328 40.25 31.5444 41.4502 32.2027C42.6884 32.8819 43.375 33.6936 43.375 34.5C43.375 34.94 43.1574 35.402 42.7245 35.8532C42.292 36.304 41.6519 36.7355 40.8291 37.1105C39.184 37.8601 36.8274 38.375 34 38.375ZM36.625 29.5273V28.5C36.625 27.0232 35.4133 25.7413 33.5116 24.8357C31.6018 23.9264 28.9575 23.375 26 23.375C23.0425 23.375 20.3982 23.9264 18.4884 24.8357C16.5867 25.7413 15.375 27.0232 15.375 28.5V33.5C15.375 34.7604 16.2588 35.8787 17.6948 36.7396C19.1112 37.5887 21.0887 38.2037 23.375 38.4727V39.5C23.375 40.9768 24.5867 42.2587 26.4884 43.1643C28.3982 44.0736 31.0425 44.625 34 44.625C36.9575 44.625 39.6018 44.0736 41.5116 43.1643C43.4133 42.2587 44.625 40.9768 44.625 39.5V34.5C44.625 33.2567 43.7651 32.1411 42.34 31.2772C40.9341 30.4249 38.9557 29.8018 36.625 29.5273ZM30.625 33.1339C32.6528 32.6742 34.3173 31.9155 35.375 30.9577V33.5C35.375 34.1203 34.9406 34.7845 34.0916 35.3929C33.275 35.9781 32.0952 36.4957 30.625 36.8553V33.1339ZM26 24.625C28.8274 24.625 31.184 25.1399 32.8291 25.8895C33.6519 26.2645 34.292 26.696 34.7245 27.1468C35.1574 27.598 35.375 28.06 35.375 28.5C35.375 28.94 35.1574 29.402 34.7245 29.8532C34.292 30.304 33.6519 30.7355 32.8291 31.1105C31.184 31.8601 28.8274 32.375 26 32.375C23.1726 32.375 20.816 31.8601 19.1709 31.1105C18.3481 30.7355 17.708 30.304 17.2755 29.8532C16.8426 29.402 16.625 28.94 16.625 28.5C16.625 28.06 16.8426 27.598 17.2755 27.1468C17.708 26.696 18.3481 26.2645 19.1709 25.8895C20.816 25.1399 23.1726 24.625 26 24.625ZM16.625 33.5V30.9577C17.6827 31.9155 19.3473 32.6747 21.375 33.1399V36.8613C19.9048 36.4988 18.7251 35.9797 17.9085 35.3938C17.0594 34.7845 16.625 34.1203 16.625 33.5ZM24.625 39.5V38.5832C25.0741 38.6104 25.5334 38.625 26 38.625C26.5039 38.625 26.9955 38.608 27.4819 38.5776C28.1006 38.8016 28.733 38.9862 29.375 39.1304V42.8553C27.9048 42.4957 26.725 41.9781 25.9084 41.3929C25.0594 40.7845 24.625 40.1203 24.625 39.5ZM37.375 39.2446C37.4167 39.2382 37.4583 39.2317 37.5 39.225V39.3516L37.375 39.2446ZM43.375 39.5C43.375 40.1203 42.9406 40.7845 42.0916 41.3929C41.275 41.9781 40.0952 42.4957 38.625 42.8553V39.1339C40.6526 38.6743 42.3172 37.9155 43.375 36.9526V39.5Z" fill="#E94057" stroke="#E94057" stroke-width="0.25"/>
<defs>
<filter id="filter0_d_768_1029" x="-32.0131" y="-27" width="260.026" height="125.026" filterUnits="userSpaceOnUse" color-interpolation-filters="sRGB">
<feFlood flood-opacity="0" result="BackgroundImageFix"/>
<feColorMatrix in="SourceAlpha" type="matrix" values="0 0 0 0 0 0 0 0 0 0 0 0 0 0 0 0 0 0 127 0" result="hardAlpha"/>
<feOffset dy="3.01312"/>
<feGaussianBlur stdDeviation="1.50656"/>
<feColorMatrix type="matrix" values="0 0 0 0 0 0 0 0 0 0 0 0 0 0 0 0 0 0 0.04 0"/>
<feBlend mode="normal" in2="BackgroundImageFix" result="effect1_dropShadow_768_1029"/>
<feBlend mode="normal" in="SourceGraphic" in2="effect1_dropShadow_768_1029" result="shape"/>
</filter>
</defs>
</svg>
