<svg width="64" height="65" viewBox="0 0 64 65" fill="none" xmlns="http://www.w3.org/2000/svg">
<rect width="64" height="65" fill="#4C4C4C"/>
<g clip-path="url(#clip0_768_1029)">
<rect width="1440" height="1024" transform="translate(-580 -189)" fill="white"/>
<g filter="url(#filter0_d_768_1029)">
<rect x="-28.7666" y="-27.7822" width="254.039" height="129.564" rx="10.5459" fill="white"/>
</g>
<ellipse cx="31.7549" cy="32.1036" rx="31.7549" ry="32.0144" fill="#FCEAFA"/>
<g clip-path="url(#clip1_768_1029)">
<path d="M32 36C36.4183 36 40 32.4183 40 28C40 23.5817 36.4183 20 32 20C27.5817 20 24 23.5817 24 28C24 32.4183 27.5817 36 32 36Z" stroke="#E94057" stroke-width="2" stroke-linecap="round" stroke-linejoin="round"/>
<path d="M20 43C22.4213 38.8162 26.8187 36 32 36C37.1813 36 41.5787 38.8162 44 43" stroke="#E94057" stroke-width="2" stroke-linecap="round" stroke-linejoin="round"/>
</g>
</g>
<defs>
<filter id="filter0_d_768_1029" x="-31.7797" y="-27.7822" width="260.065" height="135.591" filterUnits="userSpaceOnUse" color-interpolation-filters="sRGB">
<feFlood flood-opacity="0" result="BackgroundImageFix"/>
<feColorMatrix in="SourceAlpha" type="matrix" values="0 0 0 0 0 0 0 0 0 0 0 0 0 0 0 0 0 0 127 0" result="hardAlpha"/>
<feOffset dy="3.01312"/>
<feGaussianBlur stdDeviation="1.50656"/>
<feColorMatrix type="matrix" values="0 0 0 0 0 0 0 0 0 0 0 0 0 0 0 0 0 0 0.04 0"/>
<feBlend mode="normal" in2="BackgroundImageFix" result="effect1_dropShadow_768_1029"/>
<feBlend mode="normal" in="SourceGraphic" in2="effect1_dropShadow_768_1029" result="shape"/>
</filter>
<clipPath id="clip0_768_1029">
<rect width="1440" height="1024" fill="white" transform="translate(-580 -189)"/>
</clipPath>
<clipPath id="clip1_768_1029">
<rect width="32" height="32" fill="white" transform="translate(16 16)"/>
</clipPath>
</defs>
</svg>
