<svg width="189" height="81" viewBox="0 0 189 81" fill="none" xmlns="http://www.w3.org/2000/svg">
<path d="M41.8293 21.8405C42.6885 21.9632 43.2716 22.2241 43.5785 22.623C43.916 23.0219 44.0848 23.5436 44.0848 24.1881C44.0848 26.3055 42.9494 27.2875 40.6785 27.134L39.0674 26.9959C37.2569 26.8425 35.4464 26.7198 33.6358 26.6277C31.856 26.5356 29.984 26.4896 28.0201 26.4896H25.9487C25.5804 31.0313 25.1968 35.1741 24.7979 38.9179L32.7152 38.7798C33.8506 38.7798 34.6025 38.9793 34.9707 39.3782C35.3696 39.7771 35.5691 40.3142 35.5691 40.9893C35.5691 42.0327 35.2622 42.8612 34.6485 43.475C34.0347 44.058 33.1602 44.3495 32.0247 44.3495H24.1535L23.8773 46.3289C23.2329 51.3922 21.8519 54.998 19.7345 57.1461C17.6478 59.2942 14.7632 60.3682 11.0807 60.3682C8.99401 60.3682 7.07606 59.9233 5.32689 59.0334C3.57772 58.1127 2.28886 57.008 1.46031 55.7191C1.12275 55.1975 0.953969 54.5684 0.953969 53.8319C0.953969 53.0954 1.12275 52.451 1.46031 51.8986C1.82855 51.3462 2.27352 51.07 2.7952 51.07C3.16345 51.07 3.51635 51.1928 3.85391 51.4383C4.22215 51.6838 4.68246 52.1594 5.23483 52.8652C6.70782 54.7985 8.5337 55.7652 10.7125 55.7652C12.4617 55.7652 13.9193 55.0594 15.0854 53.6478C16.2822 52.2055 17.0494 49.9499 17.387 46.8812L17.6631 44.3495H15.4537C14.7479 44.3495 14.1341 44.1501 13.6124 43.7511C13.1214 43.3522 12.8759 42.7845 12.8759 42.048C12.8759 41.0967 13.1214 40.3755 13.6124 39.8846C14.1034 39.3629 14.8246 39.102 15.7759 39.102C16.6351 39.102 17.479 39.0867 18.3076 39.056C18.6758 35.6804 19.0747 31.5837 19.5044 26.7658C16.1902 27.0727 13.8579 27.6097 12.5077 28.3769C11.1575 29.144 10.4823 30.2795 10.4823 31.7831C10.4823 32.8265 10.7892 33.8238 11.403 34.7751C11.5871 35.0513 11.6791 35.3275 11.6791 35.6037C11.6791 36.1561 11.3723 36.6471 10.7585 37.0767C10.1448 37.4756 9.45432 37.6751 8.68714 37.6751C7.85858 37.6751 7.15278 37.4296 6.56972 36.9386C6.20148 36.6317 5.84857 36.0026 5.51102 35.0513C5.17346 34.1 5.00468 33.0413 5.00468 31.8752C5.00468 28.07 6.95331 25.3081 10.8506 23.5897C14.7785 21.8712 20.5017 21.0119 28.0201 21.0119C33.2369 21.0119 37.84 21.2881 41.8293 21.8405ZM40.6746 60.2302C39.2936 60.2302 38.1582 59.6011 37.2683 58.3429C36.409 57.054 35.9794 55.4583 35.9794 53.5557C35.9794 51.2542 36.1329 49.1521 36.4397 47.2495C36.7466 45.3162 37.2529 43.2755 37.9588 41.1274C38.2656 40.2068 38.6952 39.547 39.2476 39.1481C39.8 38.7491 40.6746 38.5497 41.8714 38.5497C42.5465 38.5497 43.0068 38.6571 43.2523 38.8719C43.5285 39.0867 43.6666 39.4089 43.6666 39.8385C43.6666 40.084 43.4978 40.9126 43.1602 42.3242C42.8534 43.4596 42.6079 44.4876 42.4237 45.4082C41.81 48.6304 41.5031 50.7785 41.5031 51.8526C41.5031 52.497 41.5798 52.9573 41.7333 53.2335C41.8867 53.479 42.1322 53.6017 42.4698 53.6017C42.9301 53.6017 43.4978 53.1414 44.1729 52.2208C44.8787 51.3002 45.6152 49.9039 46.3824 48.032C47.1802 46.1601 47.9474 43.8585 48.6839 41.1274C48.9294 40.2068 49.2977 39.547 49.7887 39.1481C50.3103 38.7491 51.0775 38.5497 52.0902 38.5497C52.796 38.5497 53.287 38.6417 53.5632 38.8258C53.8394 38.9793 53.9775 39.2862 53.9775 39.7465C53.9775 40.5136 53.5939 42.6157 52.8267 46.0527C51.9674 49.9806 51.5378 52.4049 51.5378 53.3255C51.5378 53.9086 51.6606 54.3689 51.9061 54.7065C52.1516 55.0133 52.4738 55.1668 52.8727 55.1668C53.4865 55.1668 54.2076 54.7985 55.0362 54.062C55.8954 53.2949 57.0308 52.0674 58.4424 50.3796C58.8107 49.9499 59.225 49.7351 59.6853 49.7351C60.0842 49.7351 60.3911 49.9193 60.6059 50.2875C60.8514 50.6558 60.9741 51.1621 60.9741 51.8065C60.9741 53.034 60.6826 53.9853 60.0996 54.6604C58.78 56.2869 57.3531 57.6217 55.8187 58.6651C54.315 59.7085 52.5965 60.2302 50.6632 60.2302C49.1903 60.2302 48.1009 59.6624 47.3951 58.527C46.7199 57.3916 46.3824 55.7959 46.3824 53.7398C45.8607 55.8265 45.0782 57.4376 44.0348 58.573C42.9914 59.6778 41.8714 60.2302 40.6746 60.2302ZM60.5099 60.2302C59.3438 60.2302 58.5152 59.6164 58.0242 58.3889C57.5639 57.1614 57.3337 55.1975 57.3337 52.497C57.3337 48.5077 57.9015 44.7178 59.0369 41.1274C59.3131 40.2375 59.758 39.593 60.3718 39.1941C61.0162 38.7645 61.9061 38.5497 63.0416 38.5497C63.6553 38.5497 64.0849 38.6264 64.3304 38.7798C64.5759 38.9332 64.6987 39.2248 64.6987 39.6544C64.6987 40.1454 64.4685 41.2501 64.0082 42.9686C63.7013 44.1961 63.4558 45.2702 63.2717 46.1908C63.0876 47.1114 62.9342 48.2468 62.8114 49.597C63.8241 46.9579 64.9595 44.8098 66.2177 43.1527C67.4759 41.4956 68.7034 40.3142 69.9002 39.6084C71.1276 38.9026 72.2477 38.5497 73.2604 38.5497C74.2424 38.5497 74.9789 38.8105 75.4699 39.3322C75.9916 39.8232 76.2524 40.5597 76.2524 41.5417C76.2524 42.3395 76.0836 43.8432 75.7461 46.0527C75.4392 47.9246 75.1937 49.7045 75.0096 51.3922C74.8254 53.0494 74.7334 54.9059 74.7334 56.962C74.7334 58.1281 74.4879 58.972 73.9969 59.4937C73.5366 59.9847 72.7694 60.2302 71.6954 60.2302C70.6827 60.2302 69.9462 59.9693 69.4859 59.4476C69.0256 58.9259 68.7954 58.1434 68.7954 57.1001C68.7954 55.8726 69.0102 53.8472 69.4398 51.024C69.8081 48.569 69.9922 47.004 69.9922 46.3289C69.9922 45.8379 69.8234 45.5924 69.4859 45.5924C69.0869 45.5924 68.5192 46.1141 67.7827 47.1574C67.0769 48.1701 66.3404 49.5203 65.5733 51.2081C64.8368 52.8959 64.2384 54.6758 63.7781 56.5477C63.4405 57.99 63.0416 58.972 62.5813 59.4937C62.1516 59.9847 61.4612 60.2302 60.5099 60.2302ZM127.348 49.7351C127.747 49.7351 128.053 49.9193 128.268 50.2875C128.514 50.6558 128.636 51.1621 128.636 51.8065C128.636 53.0033 128.345 53.9546 127.762 54.6604C126.043 56.7165 124.371 58.1588 122.745 58.9873C121.149 59.8159 119.216 60.2302 116.945 60.2302C115.349 60.2302 113.876 60.0307 112.526 59.6318C111.175 59.2328 109.534 58.6344 107.6 57.8366C105.943 57.1307 104.47 56.563 103.181 56.1334C101.77 57.6678 100.496 58.7418 99.3609 59.3556C98.2255 59.9386 97.0287 60.2302 95.7705 60.2302C94.0827 60.2302 92.7325 59.8466 91.7198 59.0794C90.7071 58.2815 90.2008 57.2535 90.2008 55.9953C90.2008 55.044 90.5077 54.1694 91.1214 53.3716C91.7658 52.5737 92.6558 51.9446 93.7912 51.4843C94.9266 51.024 96.2462 50.7938 97.7498 50.7938C98.6091 50.7938 99.2535 50.8092 99.6831 50.8399C105.698 43.3522 111.129 35.4503 115.978 27.134C113.339 26.6737 110.654 26.4436 107.923 26.4436C104.394 26.4436 101.801 26.8578 100.143 27.6864C98.517 28.4843 97.7038 29.7578 97.7038 31.507C97.7038 32.0286 97.7652 32.4736 97.8879 32.8418C98.0107 33.2101 98.1948 33.6397 98.4403 34.1307C98.7165 34.6831 98.8546 35.082 98.8546 35.3275C98.8546 35.9413 98.5631 36.4629 97.98 36.8926C97.4276 37.2915 96.7832 37.491 96.0467 37.491C95.2795 37.491 94.6504 37.2608 94.1594 36.8005C93.5764 36.2788 93.1007 35.573 92.7325 34.6831C92.3949 33.7625 92.2262 32.7344 92.2262 31.599C92.2262 28.0086 93.7145 25.3542 96.6911 23.6357C99.6678 21.9172 103.596 21.058 108.475 21.058C110.899 21.058 113.37 21.1961 115.886 21.4722C118.433 21.7484 120.811 22.1934 123.021 22.8071C123.941 23.0526 124.555 23.4055 124.862 23.8658C125.169 24.2955 125.322 24.8632 125.322 25.569C125.322 26.3975 125.107 27.042 124.678 27.5023C124.248 27.9626 123.65 28.1927 122.883 28.1927H122.56C119.246 33.5937 115.886 38.7798 112.48 43.7511C109.749 47.7098 107.831 50.3949 106.726 51.8065C108.506 52.2055 110.055 52.5737 111.375 52.9113C113.001 53.3409 114.306 53.6631 115.288 53.8779C116.3 54.062 117.175 54.1541 117.911 54.1541C119.691 54.1541 121.21 53.8626 122.468 53.2795C123.757 52.6658 124.969 51.6991 126.105 50.3796C126.473 49.9499 126.887 49.7351 127.348 49.7351ZM151.112 45.8686C151.511 45.8686 151.818 46.068 152.033 46.467C152.248 46.8659 152.355 47.3722 152.355 47.986C152.355 49.459 151.91 50.3335 151.02 50.6097C149.179 51.2542 147.153 51.6224 144.944 51.7145C144.361 54.2922 143.21 56.3636 141.492 57.9286C139.773 59.463 137.825 60.2302 135.646 60.2302C133.805 60.2302 132.224 59.7852 130.905 58.8953C129.616 58.0053 128.634 56.8239 127.959 55.3509C127.284 53.8779 126.946 52.2822 126.946 50.5637C126.946 48.2315 127.391 46.1601 128.281 44.3495C129.171 42.5083 130.398 41.0814 131.963 40.0687C133.528 39.0253 135.262 38.5036 137.165 38.5036C139.497 38.5036 141.369 39.3168 142.781 40.9433C144.223 42.539 145.067 44.5183 145.312 46.8812C146.755 46.7892 148.473 46.4823 150.468 45.9606C150.713 45.8992 150.928 45.8686 151.112 45.8686ZM136.014 55.3509C136.996 55.3509 137.84 54.952 138.546 54.1541C139.282 53.3562 139.773 52.2055 140.019 50.7018C139.067 50.0574 138.331 49.2135 137.809 48.1701C137.318 47.1267 137.073 46.022 137.073 44.8559C137.073 44.3649 137.119 43.8739 137.211 43.3829H136.981C135.753 43.3829 134.725 43.9813 133.897 45.1781C133.099 46.3442 132.7 48.0013 132.7 50.1494C132.7 51.8372 133.022 53.1261 133.666 54.016C134.342 54.9059 135.124 55.3509 136.014 55.3509ZM151.672 60.2302C150.506 60.2302 149.678 59.6164 149.187 58.3889C148.726 57.1614 148.496 55.1975 148.496 52.497C148.496 48.5077 149.064 44.7178 150.199 41.1274C150.476 40.2375 150.921 39.593 151.534 39.1941C152.179 38.7645 153.069 38.5497 154.204 38.5497C154.818 38.5497 155.247 38.6264 155.493 38.7798C155.738 38.9332 155.861 39.2248 155.861 39.6544C155.861 40.1454 155.631 41.2501 155.171 42.9686C154.864 44.1961 154.618 45.2702 154.434 46.1908C154.25 47.1114 154.097 48.2468 153.974 49.597C154.987 46.9579 156.122 44.8098 157.38 43.1527C158.638 41.4956 159.866 40.3142 161.063 39.6084C162.29 38.9026 163.41 38.5497 164.423 38.5497C166.418 38.5497 167.415 39.547 167.415 41.5417C167.415 42.7385 167.077 44.9019 166.402 48.032C165.819 50.7018 165.528 52.4663 165.528 53.3255C165.528 54.553 165.973 55.1668 166.863 55.1668C167.476 55.1668 168.197 54.7985 169.026 54.062C169.885 53.2949 171.021 52.0674 172.432 50.3796C172.801 49.9499 173.215 49.7351 173.675 49.7351C174.074 49.7351 174.381 49.9193 174.596 50.2875C174.841 50.6558 174.964 51.1621 174.964 51.8065C174.964 53.034 174.672 53.9853 174.089 54.6604C172.77 56.2869 171.343 57.6217 169.809 58.6651C168.305 59.7085 166.586 60.2302 164.653 60.2302C163.088 60.2302 161.907 59.7852 161.109 58.8953C160.311 57.9746 159.912 56.6551 159.912 54.9366C159.912 54.0774 160.127 52.543 160.556 50.3335C160.955 48.4002 161.155 47.0654 161.155 46.3289C161.155 45.8379 160.986 45.5924 160.648 45.5924C160.249 45.5924 159.682 46.1141 158.945 47.1574C158.239 48.1701 157.503 49.5203 156.736 51.2081C155.999 52.8959 155.401 54.6758 154.941 56.5477C154.603 57.99 154.204 58.972 153.744 59.4937C153.314 59.9847 152.624 60.2302 151.672 60.2302ZM187.719 51.1161C188.118 51.1161 188.425 51.3002 188.639 51.6684C188.885 52.0367 189.008 52.543 189.008 53.1874C189.008 54.2922 188.747 55.2435 188.225 56.0414C187.366 57.3609 186.23 58.3889 184.819 59.1254C183.438 59.8619 181.781 60.2302 179.848 60.2302C176.902 60.2302 174.615 59.3556 172.989 57.6064C171.363 55.8265 170.549 53.4329 170.549 50.4256C170.549 48.3082 170.994 46.3442 171.884 44.5337C172.774 42.6924 174.002 41.2348 175.567 40.1607C177.162 39.0867 178.958 38.5497 180.952 38.5497C182.732 38.5497 184.159 39.0867 185.233 40.1607C186.307 41.2041 186.844 42.6311 186.844 44.4416C186.844 46.559 186.077 48.3849 184.543 49.9193C183.039 51.4229 180.461 52.6197 176.809 53.5097C177.546 54.9213 178.789 55.6271 180.538 55.6271C181.796 55.6271 182.824 55.3355 183.622 54.7525C184.451 54.1694 185.402 53.1874 186.476 51.8065C186.844 51.3462 187.258 51.1161 187.719 51.1161ZM180.17 43.0607C179.034 43.0607 178.068 43.7205 177.27 45.04C176.503 46.3595 176.119 47.9553 176.119 49.8272V49.9193C177.93 49.4896 179.357 48.8452 180.4 47.986C181.443 47.1267 181.965 46.1294 181.965 44.994C181.965 44.4109 181.796 43.9506 181.459 43.613C181.152 43.2448 180.722 43.0607 180.17 43.0607Z" fill="url(#paint0_linear_625_2313)"/>
<defs>
<linearGradient id="paint0_linear_625_2313" x1="1" y1="40.5" x2="188" y2="40.5" gradientUnits="userSpaceOnUse">
<stop stop-color="#8A2387"/>
<stop offset="0.5" stop-color="#E94057"/>
<stop offset="1" stop-color="#F27121"/>
</linearGradient>
</defs>
</svg>
