<svg width="103" height="57" viewBox="0 0 103 57" fill="none" xmlns="http://www.w3.org/2000/svg">
<path d="M23.0522 12.3898C23.5163 12.4561 23.8312 12.597 23.9969 12.8124C24.1792 13.0279 24.2704 13.3097 24.2704 13.6577C24.2704 14.8014 23.6571 15.3317 22.4306 15.2489L21.5605 15.1743C20.5826 15.0914 19.6047 15.0251 18.6268 14.9754C17.6655 14.9257 16.6545 14.9008 15.5937 14.9008H14.475C14.2761 17.3538 14.0689 19.5913 13.8534 21.6134L18.1296 21.5388C18.7429 21.5388 19.1489 21.6466 19.3478 21.862C19.5633 22.0775 19.671 22.3675 19.671 22.7322C19.671 23.2957 19.5053 23.7432 19.1738 24.0747C18.8423 24.3896 18.3699 24.5471 17.7567 24.5471H13.5054L13.3562 25.6161C13.0081 28.3509 12.2623 30.2984 11.1186 31.4586C9.99159 32.6188 8.4336 33.1989 6.44468 33.1989C5.31762 33.1989 4.28172 32.9586 3.33698 32.4779C2.39225 31.9807 1.69612 31.384 1.24862 30.6879C1.0663 30.4061 0.975138 30.0663 0.975138 29.6686C0.975138 29.2708 1.0663 28.9227 1.24862 28.6244C1.44751 28.326 1.68784 28.1769 1.9696 28.1769C2.16849 28.1769 2.3591 28.2432 2.54142 28.3758C2.74031 28.5083 2.98892 28.7653 3.28726 29.1465C4.08283 30.1906 5.06901 30.7127 6.24578 30.7127C7.19052 30.7127 7.97781 30.3315 8.60763 29.5691C9.25403 28.7901 9.66839 27.5719 9.85071 25.9145L9.99988 24.5471H8.80652C8.42531 24.5471 8.09383 24.4393 7.81206 24.2239C7.54687 24.0084 7.41428 23.7018 7.41428 23.304C7.41428 22.7902 7.54687 22.4007 7.81206 22.1355C8.07725 21.8537 8.46675 21.7129 8.98055 21.7129C9.44464 21.7129 9.90043 21.7046 10.3479 21.688C10.5468 19.8648 10.7623 17.6521 10.9943 15.05C9.20431 15.2157 7.94466 15.5058 7.21538 15.9201C6.48611 16.3345 6.12148 16.9477 6.12148 17.7599C6.12148 18.3234 6.28722 18.8621 6.61871 19.3759C6.71815 19.525 6.76788 19.6742 6.76788 19.8234C6.76788 20.1217 6.60213 20.3869 6.27065 20.619C5.93916 20.8344 5.56624 20.9422 5.15188 20.9422C4.70437 20.9422 4.32316 20.8096 4.00825 20.5444C3.80935 20.3786 3.61875 20.0389 3.43643 19.525C3.25411 19.0112 3.16295 18.4394 3.16295 17.8096C3.16295 15.7544 4.21543 14.2627 6.32037 13.3345C8.44189 12.4064 11.533 11.9423 15.5937 11.9423C18.4114 11.9423 20.8975 12.0914 23.0522 12.3898ZM22.4285 33.1243C21.6827 33.1243 21.0694 32.7845 20.5888 32.105C20.1247 31.4089 19.8926 30.547 19.8926 29.5194C19.8926 28.2763 19.9755 27.141 20.1412 26.1134C20.307 25.0692 20.5805 23.967 20.9617 22.8068C21.1274 22.3095 21.3595 21.9532 21.6578 21.7377C21.9561 21.5223 22.4285 21.4145 23.0749 21.4145C23.4395 21.4145 23.6882 21.4725 23.8208 21.5886C23.9699 21.7046 24.0445 21.8786 24.0445 22.1106C24.0445 22.2432 23.9533 22.6907 23.771 23.4532C23.6053 24.0664 23.4727 24.6217 23.3732 25.1189C23.0418 26.8592 22.876 28.0194 22.876 28.5995C22.876 28.9476 22.9175 29.1962 23.0003 29.3454C23.0832 29.4779 23.2158 29.5442 23.3981 29.5442C23.6467 29.5442 23.9533 29.2956 24.318 28.7984C24.6992 28.3012 25.097 27.547 25.5113 26.536C25.9423 25.525 26.3566 24.2819 26.7544 22.8068C26.887 22.3095 27.0859 21.9532 27.3511 21.7377C27.6329 21.5223 28.0472 21.4145 28.5942 21.4145C28.9754 21.4145 29.2406 21.4642 29.3897 21.5637C29.5389 21.6466 29.6135 21.8123 29.6135 22.0609C29.6135 22.4753 29.4063 23.6106 28.992 25.467C28.5279 27.5885 28.2958 28.8978 28.2958 29.3951C28.2958 29.71 28.3621 29.9586 28.4947 30.1409C28.6273 30.3067 28.8013 30.3895 29.0168 30.3895C29.3483 30.3895 29.7378 30.1906 30.1853 29.7929C30.6494 29.3785 31.2626 28.7155 32.0251 27.8039C32.224 27.5719 32.4477 27.4559 32.6963 27.4559C32.9118 27.4559 33.0775 27.5553 33.1936 27.7542C33.3261 27.9531 33.3924 28.2266 33.3924 28.5746C33.3924 29.2376 33.235 29.7514 32.9201 30.1161C32.2074 30.9945 31.4367 31.7155 30.608 32.279C29.7958 32.8425 28.8676 33.1243 27.8235 33.1243C27.0279 33.1243 26.4395 32.8177 26.0583 32.2044C25.6937 31.5912 25.5113 30.7293 25.5113 29.6188C25.2296 30.7459 24.8069 31.616 24.2434 32.2293C23.6799 32.826 23.0749 33.1243 22.4285 33.1243ZM33.1417 33.1243C32.5119 33.1243 32.0644 32.7928 31.7992 32.1298C31.5506 31.4669 31.4262 30.4061 31.4262 28.9476C31.4262 26.7929 31.7329 24.746 32.3461 22.8068C32.4953 22.3261 32.7356 21.9781 33.0671 21.7626C33.4152 21.5305 33.8958 21.4145 34.5091 21.4145C34.8406 21.4145 35.0726 21.456 35.2052 21.5388C35.3378 21.6217 35.4041 21.7792 35.4041 22.0112C35.4041 22.2764 35.2798 22.8731 35.0312 23.8012C34.8654 24.4642 34.7328 25.0443 34.6334 25.5415C34.5339 26.0388 34.4511 26.652 34.3848 27.3813C34.9317 25.9559 35.545 24.7957 36.2245 23.9007C36.9041 23.0057 37.567 22.3675 38.2134 21.9863C38.8764 21.6051 39.4814 21.4145 40.0283 21.4145C40.5587 21.4145 40.9565 21.5554 41.2217 21.8372C41.5035 22.1024 41.6443 22.5001 41.6443 23.0305C41.6443 23.4615 41.5532 24.2736 41.3709 25.467C41.2051 26.478 41.0725 27.4393 40.9731 28.3509C40.8736 29.2459 40.8239 30.2487 40.8239 31.3591C40.8239 31.989 40.6913 32.4448 40.4261 32.7265C40.1775 32.9917 39.7632 33.1243 39.183 33.1243C38.6361 33.1243 38.2383 32.9834 37.9897 32.7017C37.7411 32.4199 37.6168 31.9973 37.6168 31.4337C37.6168 30.7707 37.7328 29.6768 37.9648 28.152C38.1637 26.8261 38.2632 25.9808 38.2632 25.6161C38.2632 25.3509 38.172 25.2183 37.9897 25.2183C37.7742 25.2183 37.4676 25.5001 37.0698 26.0636C36.6886 26.6106 36.2908 27.3399 35.8765 28.2514C35.4787 29.163 35.1555 30.1243 34.9069 31.1354C34.7245 31.9144 34.5091 32.4448 34.2605 32.7265C34.0284 32.9917 33.6555 33.1243 33.1417 33.1243ZM69.2412 27.4559C69.4567 27.4559 69.6224 27.5553 69.7385 27.7542C69.8711 27.9531 69.9374 28.2266 69.9374 28.5746C69.9374 29.221 69.7799 29.7349 69.465 30.1161C68.5368 31.2265 67.6335 32.0055 66.7551 32.453C65.8932 32.9006 64.849 33.1243 63.6225 33.1243C62.7607 33.1243 61.9651 33.0166 61.2358 32.8011C60.5065 32.5856 59.6198 32.2624 58.5756 31.8315C57.6806 31.4503 56.885 31.1437 56.1889 30.9116C55.4265 31.7403 54.7387 32.3205 54.1254 32.6519C53.5122 32.9669 52.8658 33.1243 52.1862 33.1243C51.2746 33.1243 50.5454 32.9171 49.9984 32.5028C49.4514 32.0718 49.178 31.5166 49.178 30.837C49.178 30.3232 49.3437 29.8509 49.6752 29.4199C50.0233 28.989 50.5039 28.6492 51.1172 28.4006C51.7304 28.152 52.4431 28.0277 53.2553 28.0277C53.7193 28.0277 54.0674 28.036 54.2994 28.0526C57.548 24.0084 60.4817 19.7405 63.1004 15.2489C61.675 15.0002 60.2248 14.8759 58.7497 14.8759C56.8436 14.8759 55.4431 15.0997 54.5481 15.5472C53.6696 15.9781 53.2304 16.666 53.2304 17.6107C53.2304 17.8925 53.2635 18.1328 53.3298 18.3317C53.3961 18.5306 53.4956 18.7626 53.6282 19.0278C53.7774 19.3262 53.8519 19.5416 53.8519 19.6742C53.8519 20.0057 53.6945 20.2875 53.3796 20.5195C53.0812 20.735 52.7332 20.8427 52.3354 20.8427C51.921 20.8427 51.5813 20.7184 51.3161 20.4698C51.0011 20.188 50.7442 19.8068 50.5454 19.3262C50.363 18.8289 50.2719 18.2737 50.2719 17.6604C50.2719 15.7212 51.0757 14.2875 52.6834 13.3594C54.2912 12.4312 56.4127 11.9671 59.048 11.9671C60.3574 11.9671 61.6916 12.0417 63.0507 12.1909C64.4264 12.3401 65.7109 12.5804 66.9042 12.9119C67.4015 13.0445 67.733 13.2351 67.8987 13.4837C68.0645 13.7157 68.1473 14.0224 68.1473 14.4036C68.1473 14.8511 68.0313 15.1991 67.7993 15.4478C67.5672 15.6964 67.244 15.8207 66.8297 15.8207H66.6556C64.8656 18.7378 63.0507 21.5388 61.211 24.2239C59.7358 26.362 58.6999 27.8122 58.1033 28.5746C59.0646 28.7901 59.9016 28.989 60.6143 29.1713C61.4927 29.4034 62.1971 29.5774 62.7275 29.6934C63.2745 29.7929 63.7468 29.8426 64.1446 29.8426C65.1059 29.8426 65.9264 29.6851 66.6059 29.3702C67.302 29.0387 67.9567 28.5166 68.57 27.8039C68.7689 27.5719 68.9926 27.4559 69.2412 27.4559ZM82.0766 25.3675C82.292 25.3675 82.4578 25.4752 82.5738 25.6907C82.6898 25.9062 82.7478 26.1797 82.7478 26.5111C82.7478 27.3067 82.5075 27.7791 82.0269 27.9282C81.0324 28.2763 79.9385 28.4752 78.7451 28.5249C78.4302 29.9172 77.8087 31.0359 76.8805 31.8812C75.9524 32.7099 74.8999 33.1243 73.7231 33.1243C72.7286 33.1243 71.8751 32.884 71.1624 32.4033C70.4662 31.9227 69.9359 31.2846 69.5712 30.489C69.2066 29.6934 69.0243 28.8315 69.0243 27.9034C69.0243 26.6437 69.2646 25.525 69.7453 24.5471C70.2259 23.5526 70.8889 22.7819 71.7342 22.235C72.5795 21.6714 73.5159 21.3897 74.5435 21.3897C75.8032 21.3897 76.8142 21.8289 77.5766 22.7073C78.3556 23.5692 78.8114 24.6382 78.944 25.9145C79.723 25.8647 80.6512 25.699 81.7285 25.4172C81.8611 25.3841 81.9771 25.3675 82.0766 25.3675ZM73.922 30.489C74.4524 30.489 74.9082 30.2735 75.2894 29.8426C75.6872 29.4117 75.9524 28.7901 76.0849 27.978C75.5711 27.6299 75.1734 27.1741 74.8916 26.6106C74.6264 26.0471 74.4938 25.4504 74.4938 24.8206C74.4938 24.5554 74.5187 24.2902 74.5684 24.025H74.4441C73.7811 24.025 73.2259 24.3482 72.7784 24.9946C72.3474 25.6244 72.132 26.5194 72.132 27.6796C72.132 28.5912 72.306 29.2873 72.6541 29.768C73.0187 30.2487 73.4413 30.489 73.922 30.489ZM82.3792 33.1243C81.7494 33.1243 81.3019 32.7928 81.0367 32.1298C80.7881 31.4669 80.6637 30.4061 80.6637 28.9476C80.6637 26.7929 80.9704 24.746 81.5836 22.8068C81.7328 22.3261 81.9731 21.9781 82.3046 21.7626C82.6527 21.5305 83.1333 21.4145 83.7466 21.4145C84.0781 21.4145 84.3101 21.456 84.4427 21.5388C84.5753 21.6217 84.6416 21.7792 84.6416 22.0112C84.6416 22.2764 84.5173 22.8731 84.2687 23.8012C84.1029 24.4642 83.9703 25.0443 83.8709 25.5415C83.7714 26.0388 83.6886 26.652 83.6223 27.3813C84.1692 25.9559 84.7825 24.7957 85.462 23.9007C86.1416 23.0057 86.8045 22.3675 87.4509 21.9863C88.1139 21.6051 88.7189 21.4145 89.2658 21.4145C90.3432 21.4145 90.8818 21.9532 90.8818 23.0305C90.8818 23.6769 90.6995 24.8454 90.3349 26.536C90.02 27.978 89.8625 28.931 89.8625 29.3951C89.8625 30.0581 90.1028 30.3895 90.5835 30.3895C90.915 30.3895 91.3045 30.1906 91.752 29.7929C92.2161 29.3785 92.8293 28.7155 93.5917 27.8039C93.7906 27.5719 94.0144 27.4559 94.263 27.4559C94.4785 27.4559 94.6442 27.5553 94.7602 27.7542C94.8928 27.9531 94.9591 28.2266 94.9591 28.5746C94.9591 29.2376 94.8017 29.7514 94.4868 30.1161C93.7741 30.9945 93.0034 31.7155 92.1746 32.279C91.3625 32.8425 90.4343 33.1243 89.3901 33.1243C88.5449 33.1243 87.9067 32.884 87.4758 32.4033C87.0449 31.9061 86.8294 31.1934 86.8294 30.2652C86.8294 29.8011 86.9454 28.9724 87.1775 27.7791C87.3929 26.7349 87.5007 26.0139 87.5007 25.6161C87.5007 25.3509 87.4095 25.2183 87.2272 25.2183C87.0117 25.2183 86.7051 25.5001 86.3073 26.0636C85.9261 26.6106 85.5283 27.3399 85.114 28.2514C84.7162 29.163 84.393 30.1243 84.1444 31.1354C83.962 31.9144 83.7466 32.4448 83.498 32.7265C83.2659 32.9917 82.893 33.1243 82.3792 33.1243ZM101.848 28.2017C102.064 28.2017 102.229 28.3012 102.345 28.5001C102.478 28.699 102.544 28.9724 102.544 29.3205C102.544 29.9172 102.403 30.431 102.122 30.8619C101.658 31.5746 101.044 32.1298 100.282 32.5276C99.536 32.9254 98.641 33.1243 97.5968 33.1243C96.0056 33.1243 94.7709 32.6519 93.8924 31.7072C93.014 30.7459 92.5748 29.4531 92.5748 27.8288C92.5748 26.6852 92.8151 25.6244 93.2957 24.6465C93.7764 23.6521 94.4394 22.8648 95.2847 22.2847C96.1465 21.7046 97.1161 21.4145 98.1935 21.4145C99.1548 21.4145 99.9255 21.7046 100.506 22.2847C101.086 22.8482 101.376 23.6189 101.376 24.5968C101.376 25.7404 100.961 26.7266 100.133 27.5553C99.3205 28.3675 97.9283 29.0139 95.9559 29.4945C96.3537 30.2569 97.025 30.6382 97.9697 30.6382C98.6493 30.6382 99.2045 30.4807 99.6354 30.1658C100.083 29.8509 100.597 29.3205 101.177 28.5746C101.376 28.326 101.599 28.2017 101.848 28.2017ZM97.7708 23.851C97.1576 23.851 96.6355 24.2073 96.2045 24.92C95.7902 25.6327 95.583 26.4946 95.583 27.5056V27.5553C96.5609 27.3233 97.3316 26.9752 97.8951 26.5111C98.4587 26.0471 98.7404 25.5084 98.7404 24.8951C98.7404 24.5802 98.6493 24.3316 98.4669 24.1493C98.3012 23.9504 98.0692 23.851 97.7708 23.851Z" fill="url(#paint0_linear_1346_133)"/>
<path d="M17.6357 53L16.4053 49.8281H12.3994L11.1758 53H10L13.9102 42.9648H14.9561L18.8389 53H17.6357ZM16.0566 48.7959L14.8877 45.6445C14.8604 45.5625 14.8148 45.4281 14.751 45.2412C14.6917 45.0544 14.6302 44.8607 14.5664 44.6602C14.5026 44.4596 14.4502 44.2979 14.4092 44.1748C14.3636 44.3617 14.3135 44.5485 14.2588 44.7354C14.2087 44.9176 14.1585 45.0885 14.1084 45.248C14.0583 45.403 14.015 45.5352 13.9785 45.6445L12.7891 48.7959H16.0566ZM22.7217 53.1367C21.7738 53.1367 21.0218 52.8132 20.4658 52.166C19.9144 51.5189 19.6387 50.5573 19.6387 49.2812C19.6387 47.9915 19.9212 47.0186 20.4863 46.3623C21.0514 45.7015 21.8034 45.3711 22.7422 45.3711C23.1387 45.3711 23.485 45.4235 23.7812 45.5283C24.0775 45.6331 24.3327 45.7744 24.5469 45.9521C24.7611 46.1253 24.9411 46.3236 25.0869 46.5469H25.1689C25.1507 46.4056 25.1325 46.2119 25.1143 45.9658C25.096 45.7197 25.0869 45.5192 25.0869 45.3643V42.3633H26.2217V53H25.3057L25.1348 51.9336H25.0869C24.9456 52.1569 24.7656 52.3597 24.5469 52.542C24.3327 52.7243 24.0752 52.8701 23.7744 52.9795C23.4782 53.0843 23.1273 53.1367 22.7217 53.1367ZM22.8994 52.1934C23.7015 52.1934 24.2689 51.9655 24.6016 51.5098C24.9342 51.054 25.1006 50.3773 25.1006 49.4795V49.2744C25.1006 48.3219 24.9411 47.5905 24.6221 47.0801C24.3076 46.5697 23.7334 46.3145 22.8994 46.3145C22.2021 46.3145 21.6803 46.5833 21.334 47.1211C20.9876 47.6543 20.8145 48.3835 20.8145 49.3086C20.8145 50.2292 20.9854 50.9401 21.3271 51.4414C21.6735 51.9427 22.1976 52.1934 22.8994 52.1934ZM36.7627 45.3711C37.5876 45.3711 38.2096 45.5876 38.6289 46.0205C39.0482 46.4489 39.2578 47.1393 39.2578 48.0918V53H38.1367V48.1465C38.1367 47.5404 38.0046 47.0869 37.7402 46.7861C37.4805 46.4808 37.0931 46.3281 36.5781 46.3281C35.8535 46.3281 35.3271 46.5378 34.999 46.957C34.6709 47.3763 34.5068 47.9938 34.5068 48.8096V53H33.3789V48.1465C33.3789 47.7409 33.3197 47.4036 33.2012 47.1348C33.0872 46.8659 32.9141 46.6654 32.6816 46.5332C32.4538 46.3965 32.1644 46.3281 31.8135 46.3281C31.3167 46.3281 30.918 46.4307 30.6172 46.6357C30.3164 46.8408 30.0977 47.1462 29.9609 47.5518C29.8288 47.9528 29.7627 48.4473 29.7627 49.0352V53H28.6279V45.5078H29.5439L29.7148 46.5674H29.7764C29.9268 46.3076 30.1159 46.0889 30.3438 45.9111C30.5716 45.7334 30.8268 45.599 31.1094 45.5078C31.3919 45.4167 31.6927 45.3711 32.0117 45.3711C32.5814 45.3711 33.0576 45.4782 33.4404 45.6924C33.8278 45.902 34.1081 46.2233 34.2812 46.6562H34.3428C34.5889 46.2233 34.9261 45.902 35.3545 45.6924C35.7829 45.4782 36.2523 45.3711 36.7627 45.3711ZM42.7236 45.5078V53H41.5889V45.5078H42.7236ZM42.1699 42.7051C42.3568 42.7051 42.5163 42.7666 42.6484 42.8896C42.7852 43.0081 42.8535 43.195 42.8535 43.4502C42.8535 43.7008 42.7852 43.8877 42.6484 44.0107C42.5163 44.1338 42.3568 44.1953 42.1699 44.1953C41.974 44.1953 41.8099 44.1338 41.6777 44.0107C41.5501 43.8877 41.4863 43.7008 41.4863 43.4502C41.4863 43.195 41.5501 43.0081 41.6777 42.8896C41.8099 42.7666 41.974 42.7051 42.1699 42.7051ZM48.6777 45.3711C49.5664 45.3711 50.2386 45.5898 50.6943 46.0273C51.1501 46.4603 51.3779 47.1576 51.3779 48.1191V53H50.2568V48.1943C50.2568 47.57 50.1133 47.1029 49.8262 46.793C49.5436 46.4831 49.1084 46.3281 48.5205 46.3281C47.6911 46.3281 47.1077 46.5628 46.7705 47.0322C46.4333 47.5016 46.2646 48.1829 46.2646 49.0762V53H45.1299V45.5078H46.0459L46.2168 46.5879H46.2783C46.4378 46.3236 46.6406 46.1025 46.8867 45.9248C47.1328 45.7425 47.4085 45.6058 47.7139 45.5146C48.0192 45.4189 48.3405 45.3711 48.6777 45.3711ZM60.1348 43.0059C61.4245 43.0059 62.3656 43.2588 62.958 43.7646C63.555 44.266 63.8535 44.986 63.8535 45.9248C63.8535 46.3486 63.7829 46.752 63.6416 47.1348C63.5049 47.513 63.2816 47.848 62.9717 48.1396C62.6618 48.4268 62.2539 48.6546 61.748 48.8232C61.2467 48.9873 60.6315 49.0693 59.9023 49.0693H58.6855V53H57.5234V43.0059H60.1348ZM60.0254 43.9971H58.6855V48.0713H59.7725C60.4105 48.0713 60.9414 48.0029 61.3652 47.8662C61.7936 47.7295 62.1149 47.5085 62.3291 47.2031C62.5433 46.8932 62.6504 46.4831 62.6504 45.9727C62.6504 45.3073 62.4385 44.8128 62.0146 44.4893C61.5908 44.1611 60.9277 43.9971 60.0254 43.9971ZM68.5771 45.3848C69.4704 45.3848 70.1335 45.5853 70.5664 45.9863C70.9993 46.3874 71.2158 47.0277 71.2158 47.9072V53H70.3887L70.1699 51.8926H70.1152C69.9056 52.166 69.6868 52.3962 69.459 52.583C69.2311 52.7653 68.9668 52.9043 68.666 53C68.3698 53.0911 68.0052 53.1367 67.5723 53.1367C67.1165 53.1367 66.7109 53.057 66.3555 52.8975C66.0046 52.738 65.7266 52.4964 65.5215 52.1729C65.321 51.8493 65.2207 51.4391 65.2207 50.9424C65.2207 50.195 65.5169 49.6208 66.1094 49.2197C66.7018 48.8187 67.6042 48.5999 68.8164 48.5635L70.1084 48.5088V48.0508C70.1084 47.4036 69.9694 46.9502 69.6914 46.6904C69.4134 46.4307 69.0215 46.3008 68.5156 46.3008C68.1237 46.3008 67.75 46.3577 67.3945 46.4717C67.0391 46.5856 66.7018 46.7201 66.3828 46.875L66.0342 46.0137C66.3714 45.8405 66.7588 45.6924 67.1963 45.5693C67.6338 45.4463 68.0941 45.3848 68.5771 45.3848ZM70.0947 49.3086L68.9531 49.3564C68.0189 49.3929 67.3604 49.5456 66.9775 49.8145C66.5947 50.0833 66.4033 50.4639 66.4033 50.9561C66.4033 51.3844 66.5332 51.7012 66.793 51.9062C67.0527 52.1113 67.3968 52.2139 67.8252 52.2139C68.4906 52.2139 69.0352 52.0293 69.459 51.6602C69.8828 51.291 70.0947 50.7373 70.0947 49.999V49.3086ZM77.1016 45.3711C77.9902 45.3711 78.6624 45.5898 79.1182 46.0273C79.5739 46.4603 79.8018 47.1576 79.8018 48.1191V53H78.6807V48.1943C78.6807 47.57 78.5371 47.1029 78.25 46.793C77.9674 46.4831 77.5322 46.3281 76.9443 46.3281C76.1149 46.3281 75.5316 46.5628 75.1943 47.0322C74.8571 47.5016 74.6885 48.1829 74.6885 49.0762V53H73.5537V45.5078H74.4697L74.6406 46.5879H74.7021C74.8617 46.3236 75.0645 46.1025 75.3105 45.9248C75.5566 45.7425 75.8324 45.6058 76.1377 45.5146C76.443 45.4189 76.7643 45.3711 77.1016 45.3711ZM85.0244 45.3711C85.6624 45.3711 86.2093 45.5124 86.665 45.7949C87.1208 46.0775 87.4694 46.474 87.7109 46.9844C87.9525 47.4902 88.0732 48.0827 88.0732 48.7617V49.4658H82.8984C82.9121 50.3454 83.1309 51.0153 83.5547 51.4756C83.9785 51.9359 84.5755 52.166 85.3457 52.166C85.8197 52.166 86.2389 52.1227 86.6035 52.0361C86.9681 51.9495 87.3464 51.8219 87.7383 51.6533V52.6514C87.36 52.82 86.984 52.943 86.6104 53.0205C86.2412 53.098 85.8037 53.1367 85.2979 53.1367C84.5778 53.1367 83.9489 52.9909 83.4111 52.6992C82.8779 52.403 82.4632 51.9701 82.167 51.4004C81.8708 50.8307 81.7227 50.1335 81.7227 49.3086C81.7227 48.502 81.8571 47.8047 82.126 47.2168C82.3994 46.6243 82.7822 46.1686 83.2744 45.8496C83.7712 45.5306 84.3545 45.3711 85.0244 45.3711ZM85.0107 46.3008C84.4046 46.3008 83.9215 46.499 83.5615 46.8955C83.2015 47.292 82.9873 47.8457 82.9189 48.5566H86.8838C86.8792 48.11 86.8086 47.7181 86.6719 47.3809C86.5397 47.0391 86.3369 46.7747 86.0635 46.5879C85.79 46.3965 85.4391 46.3008 85.0107 46.3008ZM91.1426 53H90.001V42.3633H91.1426V53Z" fill="white" fill-opacity="0.43"/>
<defs>
<linearGradient id="paint0_linear_1346_133" x1="1" y1="22" x2="102" y2="22" gradientUnits="userSpaceOnUse">
<stop stop-color="#8A2387"/>
<stop offset="0.5" stop-color="#E94057"/>
<stop offset="1" stop-color="#F27121"/>
</linearGradient>
</defs>
</svg>
