<svg width="24" height="27" viewBox="0 0 24 27" fill="none" xmlns="http://www.w3.org/2000/svg">
<path d="M16.5426 4.26758C16.5426 4.26758 12.3078 4.26758 12.3078 4.26774H8.07288H5.08196L0.615723 10.9845L12.3079 26.5073L24.0001 10.9845L19.2097 12.4652H8.58155C10.3937 12.4652 12.3079 12.4652 12.3079 12.4652H19.2097L24.0001 10.9844L19.5342 4.26758H16.5426Z" fill="#1B0612" fill-opacity="0.2"/>
<path d="M18.5909 8.19849L11.6893 22.2406L4.7876 8.19849H18.5909Z" fill="#ACE4FF"/>
<path d="M4.79046 8.19749L0 6.7168L11.6922 22.2396L4.79046 8.19749Z" fill="#D1F0FF"/>
<path d="M18.594 8.19749L23.3844 6.7168L11.6924 22.2396L18.594 8.19749Z" fill="#7ECCF2"/>
<path d="M15.9244 0H11.6893H7.45446L4.7876 8.19766H11.6893H18.5912L15.9244 0Z" fill="#D1F0FF"/>
<path d="M18.5941 8.19766L23.3842 6.71697L18.9183 0H15.9272L18.5941 8.19766Z" fill="#ACE4FF"/>
<path d="M4.79046 8.19766L7.45732 0H4.46624L0 6.71697L4.79046 8.19766Z" fill="#ACE4FF"/>
<path d="M5.53875 7.67663L7.96635 8.19793L5.53875 8.71908L5.0176 11.1465L4.49645 8.71908L2.06885 8.19793L4.49645 7.67663L5.01729 5.24902L5.53875 7.67663Z" fill="white"/>
</svg>
